  <svg width="66" height="36" viewBox="0 0 66 36" fill="none"
                                                xmlns="http://www.w3.org/2000/svg">
                                                <rect width="62" height="36" transform="translate(2)" fill="white" />
                                                <g filter="url(#filter0_d_3579_112213)">
                                                    <path
                                                        d="M15.9991 16.4026C17.5136 16.4026 18.7414 17.6304 18.7414 19.1449C18.7414 20.6594 17.5136 21.8872 15.9991 21.8872C14.4846 21.8872 13.2569 20.6594 13.2569 19.1449C13.2569 17.6304 14.4846 16.4026 15.9991 16.4026ZM15.9991 17.431C15.0526 17.431 14.2852 18.1983 14.2852 19.1449C14.2852 20.0915 15.0526 20.8588 15.9991 20.8588C16.9457 20.8588 17.713 20.0915 17.713 19.1449C17.713 18.1983 16.9457 17.431 15.9991 17.431ZM15.9991 14C19.162 14 21.8923 16.1595 22.6499 19.1859C22.7188 19.4613 22.5514 19.7406 22.2759 19.8095C22.0005 19.8785 21.7212 19.7111 21.6523 19.4356C21.0086 16.8643 18.6875 15.0283 15.9991 15.0283C13.3096 15.0283 10.9877 16.8658 10.3452 19.4387C10.2764 19.7142 9.99725 19.8818 9.72174 19.8129C9.44624 19.7441 9.27867 19.465 9.34747 19.1895C10.1037 16.1614 12.8349 14 15.9991 14Z"
                                                        fill="#4B5563" />
                                                </g>
                                                <g filter="url(#filter1_d_3579_112213)">
                                                    <path
                                                        d="M45 17C44.4473 17 44 17.4473 44 18C44 18.5527 44.4473 19 45 19C45.5527 19 46 18.5527 46 18C46 17.4473 45.5527 17 45 17ZM50 17C49.4473 17 49 17.4473 49 18C49 18.5527 49.4473 19 50 19C50.5527 19 51 18.5527 51 18C51 17.4473 50.5527 17 50 17ZM55 17C54.4473 17 54 17.4473 54 18C54 18.5527 54.4473 19 55 19C55.5527 19 56 18.5527 56 18C56 17.4473 55.5527 17 55 17Z"
                                                        fill="#4B5563" />
                                                </g>
                                                <defs>
                                                    <filter id="filter0_d_3579_112213" x="0" y="2" width="32"
                                                        height="32" filterUnits="userSpaceOnUse"
                                                        color-interpolation-filters="sRGB">
                                                        <feFlood flood-opacity="0" result="BackgroundImageFix" />
                                                        <feColorMatrix in="SourceAlpha" type="matrix"
                                                            values="0 0 0 0 0 0 0 0 0 0 0 0 0 0 0 0 0 0 127 0"
                                                            result="hardAlpha" />
                                                        <feOffset />
                                                        <feColorMatrix type="matrix"
                                                            values="0 0 0 0 0.0666667 0 0 0 0 0.0941176 0 0 0 0 0.152941 0 0 0 0.06 0" />
                                                        <feBlend mode="normal" in2="BackgroundImageFix"
                                                            result="effect1_dropShadow_3579_112213" />
                                                        <feBlend mode="normal" in="SourceGraphic"
                                                            in2="effect1_dropShadow_3579_112213" result="shape" />
                                                    </filter>
                                                    <filter id="filter1_d_3579_112213" x="34" y="2" width="32"
                                                        height="32" filterUnits="userSpaceOnUse"
                                                        color-interpolation-filters="sRGB">
                                                        <feFlood flood-opacity="0" result="BackgroundImageFix" />
                                                        <feColorMatrix in="SourceAlpha" type="matrix"
                                                            values="0 0 0 0 0 0 0 0 0 0 0 0 0 0 0 0 0 0 127 0"
                                                            result="hardAlpha" />
                                                        <feOffset />
                                                        <feColorMatrix type="matrix"
                                                            values="0 0 0 0 0.0666667 0 0 0 0 0.0941176 0 0 0 0 0.152941 0 0 0 0.06 0" />
                                                        <feBlend mode="normal" in2="BackgroundImageFix"
                                                            result="effect1_dropShadow_3579_112213" />
                                                        <feBlend mode="normal" in="SourceGraphic"
                                                            in2="effect1_dropShadow_3579_112213" result="shape" />
                                                    </filter>
                                                </defs>
                                            </svg>