<svg width="22" height="22" viewBox="0 0 22 22" fill="none" xmlns="http://www.w3.org/2000/svg">
<path fill-rule="evenodd" clip-rule="evenodd" d="M1.67383 10.5C1.67383 15.3325 5.59134 19.25 10.4238 19.25C15.2563 19.25 19.1738 15.3325 19.1738 10.5C19.1738 5.66751 15.2563 1.75 10.4238 1.75C5.59134 1.75 1.67383 5.66751 1.67383 10.5ZM10.4238 20.75C4.76291 20.75 0.173828 16.1609 0.173828 10.5C0.173828 4.83908 4.76291 0.25 10.4238 0.25C16.0847 0.25 20.6738 4.83908 20.6738 10.5C20.6738 13.0605 19.735 15.4017 18.1827 17.1982L21.4542 20.4697C21.7471 20.7626 21.7471 21.2374 21.4542 21.5303C21.1613 21.8232 20.6864 21.8232 20.3935 21.5303L17.122 18.2589C15.3256 19.8111 12.9843 20.75 10.4238 20.75Z" fill="#0E2741"/>
</svg>
